<svg width="138" height="28" viewBox="0 0 138 28" fill="none" xmlns="http://www.w3.org/2000/svg">
  <g clip-path="url(#clip0_986_1483)">
    <path
      d="M4.61605 5.07573V13.2073H17.0867V17.1428H4.61605V27.6287H0V4.33743C0 2.55116 1.47797 1.10327 3.30346 1.10327H18.5521V5.07778H4.61605V5.07573Z"
      fill="#4569F5"
    />
    <path
      d="M36.8302 23.7692V16.8497C36.8302 11.5052 33.5163 8.31616 27.9666 8.31616C22.9653 8.31616 19.6116 11.0971 19.2181 15.572L19.1909 15.894H23.5473L23.5724 15.6274C23.8027 13.193 25.2409 11.9564 27.8556 11.9564C30.8158 11.9564 32.1325 13.1131 32.3461 15.9247L25.5759 16.5585C21.0205 16.9871 18.8057 18.8513 18.8057 22.2598C18.8057 23.9866 19.4609 28 25.5298 28C28.0922 28 31.3182 27.3048 33.0034 24.2224V25.0202C33.0034 26.6301 34.0418 27.6309 35.7082 27.6309H39.5747V23.7692H36.8323H36.8302ZM32.3565 18.9477C32.1953 22.1265 29.7272 24.3208 26.2416 24.3208C25.1195 24.3208 23.2333 23.9866 23.2333 21.745C23.2333 20.412 24.0665 19.8316 26.3107 19.6101L32.3545 18.9497L32.3565 18.9477Z"
      fill="#4569F5"
    />
    <path
      d="M92.828 11.2938V27.7046H88.6599V12.5448H84.6426V8.68311H90.1986C91.9194 8.68311 92.828 9.58752 92.828 11.2938Z"
      fill="#4569F5"
    />
    <path
      d="M92.8277 3.53141C92.8277 5.01826 91.6281 6.1011 89.9785 6.1011C88.3288 6.1011 87.2256 5.04492 87.2256 3.53141C87.2256 2.0179 88.3833 0.996582 89.9785 0.996582C91.5737 0.996582 92.8277 2.06506 92.8277 3.53141Z"
      fill="#4569F5"
    />
    <path
      d="M47.3955 11.2938V27.7046H43.2295V12.5448H39.208V8.68311H44.7661C46.4869 8.68311 47.3934 9.58752 47.3934 11.2938H47.3955Z"
      fill="#4569F5"
    />
    <path
      d="M47.3959 3.53141C47.3959 5.01826 46.2005 6.1011 44.5467 6.1011C42.8929 6.1011 41.7959 5.04492 41.7959 3.53141C41.7959 2.0179 42.9536 0.996582 44.5467 0.996582C46.1398 0.996582 47.3959 2.06506 47.3959 3.53141Z"
      fill="#4569F5"
    />
    <path
      d="M65.4952 8.68311V12.5448H55.656V27.6307H51.1865V11.626C51.1865 9.67366 52.2207 8.68311 54.2639 8.68311H65.4931H65.4952Z"
      fill="#4569F5"
    />
    <path
      d="M83.4284 22.4442C83.4284 24.5176 82.3943 27.9999 75.4671 27.9999C69.5489 27.9999 66.1533 25.3031 66.1533 20.6046V20.3093H70.6228V20.6046C70.6228 23.1928 72.2662 24.5053 75.5068 24.5053C77.1983 24.5053 78.9275 24.251 78.9275 22.3704C78.9275 21.5439 78.5423 20.8836 76.6603 20.3339L71.4811 18.9004C68.4394 18.0493 66.8316 16.2589 66.8316 13.7262C66.8316 10.3382 69.7247 8.31812 74.5669 8.31812C79.8361 8.31812 82.9804 10.7791 82.9804 14.9033V15.1946H78.5109V14.9033C78.5109 12.9099 77.123 11.8107 74.6046 11.8107C72.6493 11.8107 71.3346 12.551 71.3346 13.6523C71.3346 14.6326 72.0129 15.2397 73.5997 15.6888L77.9897 16.866C80.326 17.4915 83.4305 18.7527 83.4305 22.4483L83.4284 22.4442Z"
      fill="#4569F5"
    />
    <path
      d="M111.965 0V12.0732C110.408 9.63891 107.77 8.31612 104.412 8.31612C98.9986 8.31612 95.3623 12.2619 95.3623 18.1396C95.3623 20.978 96.185 23.4164 97.7384 25.1822C99.3608 27.0259 101.67 28 104.41 28C108.522 28 110.755 26.1399 111.963 24.2408V27.6308H116.429V0H111.963H111.965ZM105.729 24.1362C102.036 24.1362 99.8318 21.8947 99.8318 18.1396C99.8318 14.3845 102.036 12.1778 105.729 12.1778C110.274 12.1778 111.888 15.3894 111.888 18.1396C111.888 22.5653 108.57 24.1362 105.729 24.1362Z"
      fill="#4569F5"
    />
    <path
      d="M133.57 20.6027L133.513 20.8242C132.919 23.1601 131.148 24.3947 128.397 24.3947C125.326 24.3947 123.446 22.5079 123.195 19.204H137.859V17.6228C137.859 11.8805 134.16 8.31616 128.209 8.31616C125.412 8.31616 123.046 9.19392 121.369 10.853C119.651 12.5573 118.744 15.0121 118.744 17.9551C118.744 24.0563 122.563 28 128.47 28C135.722 28 137.499 23.0739 137.928 20.9554L138 20.6047H133.57V20.6027ZM123.207 16.1503C123.559 13.4843 125.466 11.8456 128.246 11.8456C131.194 11.8456 133.114 13.4494 133.436 16.1503H123.207Z"
      fill="#4569F5"
    />
  </g>
  <defs>
    <clipPath id="clip0_986_1483">
      <rect width="138" height="28" fill="#4569F5" />
    </clipPath>
  </defs>
</svg>
