<svg width="143" height="25" viewBox="0 0 143 25" fill="none" xmlns="http://www.w3.org/2000/svg">
<path d="M4.19 3.91361V10.2036H11.44V14.0836H4.19V24.0836H0V0.0336076H13.88V3.91361H4.19Z" fill="#4569F5"/>
<path d="M39.86 0.0336076H44.06V24.0936H39.86V0.0336076Z" fill="#4569F5"/>
<path d="M66.53 2.50361V10.5036C66.5538 11.0261 66.3845 11.5391 66.0544 11.9449C65.7243 12.3506 65.2564 12.6207 64.74 12.7036C65.2621 12.7568 65.7424 13.0131 66.0772 13.4172C66.4121 13.8212 66.5747 14.3407 66.53 14.8636V24.0936H62.34V15.3936C62.34 14.8836 62.1 14.6036 61.58 14.6036H55.19V24.0936H51V0.0336061H64C64.3308 0.0199308 64.661 0.0740091 64.9701 0.192519C65.2793 0.311029 65.561 0.491469 65.7979 0.722769C66.0348 0.954069 66.222 1.23134 66.3479 1.53758C66.4737 1.84382 66.5357 2.17255 66.53 2.50361ZM61.68 3.91361H55.19V10.7536H61.55C62.07 10.7536 62.31 10.4836 62.31 9.96361V4.60361C62.34 4.15361 62.19 3.91361 61.68 3.91361Z" fill="#4569F5"/>
<path d="M88.8 2.50361V6.73361H84.61V4.60361C84.61 4.15361 84.43 3.91361 83.95 3.91361H78.19C77.71 3.91361 77.54 4.15361 77.54 4.60361V9.39361C77.54 9.83361 77.71 10.0736 78.19 10.0736H86.27C86.6029 10.057 86.9356 10.1093 87.2473 10.2272C87.559 10.3452 87.843 10.5262 88.0815 10.7591C88.3199 10.9919 88.5077 11.2715 88.6331 11.5803C88.7585 11.8891 88.8187 12.2204 88.81 12.5536V21.6236C88.8157 21.956 88.7535 22.286 88.6271 22.5935C88.5007 22.9009 88.3128 23.1793 88.075 23.4115C87.8371 23.6437 87.5543 23.8249 87.244 23.9439C86.9336 24.0629 86.6021 24.1173 86.27 24.1036H75.88C75.5481 24.1144 75.2175 24.0581 74.9079 23.9382C74.5982 23.8182 74.3159 23.6371 74.0779 23.4056C73.8399 23.1741 73.6509 22.897 73.5224 22.5908C73.3939 22.2846 73.3285 21.9557 73.33 21.6236V17.0736H77.53V19.5136C77.53 19.9636 77.7 20.2036 78.18 20.2036H83.95C84.43 20.2036 84.61 19.9636 84.61 19.5136V14.6036C84.61 14.1936 84.43 13.9536 83.95 13.9536H75.88C75.5474 13.9672 75.2155 13.9129 74.9046 13.794C74.5937 13.6751 74.3103 13.4941 74.0717 13.262C73.833 13.0299 73.6442 12.7517 73.5167 12.4442C73.3892 12.1367 73.3256 11.8065 73.33 11.4736V2.47361C73.3256 2.1412 73.3891 1.81138 73.5167 1.50442C73.6444 1.19745 73.8334 0.919798 74.0722 0.688502C74.3109 0.457207 74.5945 0.277149 74.9053 0.159373C75.2162 0.041598 75.5479 -0.0114087 75.88 0.00360784H86.26C86.595 -0.0147413 86.9301 0.0370461 87.2439 0.155654C87.5577 0.274262 87.8433 0.457076 88.0824 0.692401C88.3215 0.927726 88.5088 1.21037 88.6324 1.52226C88.7559 1.83414 88.813 2.16839 88.8 2.50361Z" fill="#4569F5"/>
<path d="M95.71 0.0336076H99.9V24.0936H95.71V0.0336076Z" fill="#4569F5"/>
<path d="M122.34 2.50361V21.6136C122.346 21.946 122.284 22.276 122.157 22.5835C122.031 22.8909 121.843 23.1693 121.605 23.4015C121.367 23.6337 121.084 23.8149 120.774 23.9339C120.464 24.0529 120.132 24.1073 119.8 24.0936H106.87V0.0336066H119.8C120.132 0.0155359 120.465 0.0665116 120.777 0.183318C121.088 0.300125 121.372 0.480229 121.611 0.712283C121.85 0.944337 122.038 1.22331 122.163 1.53161C122.289 1.83991 122.349 2.17087 122.34 2.50361ZM117.49 3.91361H111.07V20.2036H117.49C117.97 20.2036 118.15 19.9636 118.15 19.5136V4.60361C118.19 4.15361 117.97 3.91361 117.49 3.91361Z" fill="#4569F5"/>
<path d="M133.33 3.91361V10.0636H140.55V13.9836H133.33V20.2036H142.99V24.0936H129.19V0.0336076H142.99V3.91361H133.33Z" fill="#4569F5"/>
<path d="M27.05 0.0336085H22.54L15.46 24.0936H19.72L24.81 5.60361L28.38 18.7236L29.86 24.0936H34.13L27.05 0.0336085Z" fill="#4569F5"/>
</svg>
